<?xml version="1.0" encoding="UTF-8"?>
<svg id="Layer_1" data-name="Layer 1" xmlns="http://www.w3.org/2000/svg" viewBox="0 0 533.5 531.84">
  <defs>
    <style>
      .cls-1 {
        fill: #fff;
        stroke-width: 0px;
      }
    </style>
  </defs>
  <path class="cls-1" d="M533.5,265.46v.89c-.11,7.22-2.98,14.01-8.1,19.13l-8.34,8.34-11.41,11.41-8.59,8.59-209.9,209.9c-5.5,5.5-12.81,8.39-20.62,8.09-7.78-.29-14.88-3.72-20.01-9.66-9.38-10.88-8.44-27.69,2.14-38.27l74.41-74.41,111.05-110.72,5.06-5.04-26.3-.04-24.44-.04c-.87-.11-1.75-.16-2.64-.16H29.77c-16.41,0-29.77-13.36-29.77-29.77,0-14.08,11.45-25.53,25.53-25.53h360.28c1.38,0,2.74-.13,4.06-.37l48.46-.09-35.34-35.43c-.48-.61-1.01-1.2-1.58-1.77L247.99,47.09c-5.5-5.5-8.37-12.83-8.08-20.62.29-7.78,3.71-14.89,9.65-20.01,10.88-9.38,27.7-8.45,38.27,2.13l218.34,218.33,10.65,10.65,2.73,2.73v.15l5.85,5.86c5.12,5.12,7.99,11.91,8.1,19.15Z"/>
</svg>